<?xml version="1.0" encoding="UTF-8" standalone="no"?>
<svg width="59px" height="64px" viewBox="0 0 59 64" version="1.1" xmlns="http://www.w3.org/2000/svg" xmlns:xlink="http://www.w3.org/1999/xlink" xmlns:sketch="http://www.bohemiancoding.com/sketch/ns">
    <!-- Generator: Sketch 3.5.1 (25234) - http://www.bohemiancoding.com/sketch -->
    <title>bought</title>
    <desc>Created with Sketch.</desc>
    <defs></defs>
    <g id="Page-2" stroke="none" stroke-width="1" fill="none" fill-rule="evenodd" sketch:type="MSPage">
        <g id="bought" sketch:type="MSLayerGroup">
            <path d="M20.7585884,48.8544922 L28.4147053,62.4239127 C28.9573554,63.3856858 29.8521944,63.3955961 30.4176862,62.4387685 L38.4460884,48.8544922 C38.4460884,48.8544922 58.3972603,43.2050781 58.3972603,24.610079 C58.3972603,8.43648435 45.413518,0 29.3972603,0 C13.3810025,0 0.397260274,8.43648435 0.397260274,24.610079 C0.397260274,42.7626953 20.7585884,48.8544922 20.7585884,48.8544922 Z" id="Oval-2" fill="#39AB96" sketch:type="MSShapeGroup"></path>
            <g id="Group-2" transform="translate(12.712329, 14.255814)" fill="#FFFFFF" sketch:type="MSShapeGroup">
                <ellipse id="Oval-9" cx="5.12067459" cy="5.21511628" rx="4.97273652" ry="5.04127907"></ellipse>
            </g>
            <g id="Group-2" transform="translate(34.164384, 14.255814)" fill="#FFFFFF" sketch:type="MSShapeGroup">
                <ellipse id="Oval-9" cx="5.12067459" cy="5.21511628" rx="4.97273652" ry="5.04127907"></ellipse>
            </g>
            <path d="M21.5787175,31.1046512 C21.5787175,35.4651319 25.0791983,39 29.3972603,39 L29.3972603,39 C33.7153222,39 37.2158031,35.4651319 37.2158031,31.1046512" id="Oval-21" stroke="#FFFFFF" stroke-width="2.4" stroke-linecap="round" sketch:type="MSShapeGroup"></path>
        </g>
    </g>
</svg>