<?xml version="1.0" encoding="UTF-8" standalone="no"?>
<svg width="35px" height="34px" viewBox="0 0 35 34" version="1.1" xmlns="http://www.w3.org/2000/svg" xmlns:xlink="http://www.w3.org/1999/xlink" xmlns:sketch="http://www.bohemiancoding.com/sketch/ns">
    <!-- Generator: Sketch 3.5.1 (25234) - http://www.bohemiancoding.com/sketch -->
    <title>moon</title>
    <desc>Created with Sketch.</desc>
    <defs></defs>
    <g id="Page-2" stroke="none" stroke-width="1" fill="none" fill-rule="evenodd" sketch:type="MSPage">
        <g id="nt_clear" sketch:type="MSLayerGroup" transform="translate(5.000000, 4.000000)" fill="#FFFFFF">
            <path d="M12.0551596,25.1436644 C8.28344751,25.5352801 5.09242333,24.3322416 2.44713542,21.657733 C1.81616619,21.0197487 1.26368487,20.3033187 0.687289266,19.6126287 C0.432816738,19.306813 0.415647508,19.0800558 0.571396958,18.8416544 C0.725920035,18.6063173 0.984071684,18.5505473 1.35321015,18.6424758 C3.9592541,19.289653 6.54077058,19.2461401 8.99351784,18.0933558 C12.9565442,16.2302701 15.2032607,13.0532187 15.7581948,8.72889871 C16.0825706,6.19841156 15.440564,3.84381442 14.1363156,1.66326871 C14.0952321,1.59524156 14.0547618,1.52721442 14.0124519,1.45980014 C13.8652871,1.22446299 13.8609948,0.988512993 14.0388189,0.772174421 C14.2178695,0.555222993 14.4582387,0.516612993 14.7114849,0.613444421 C18.4917816,2.05549728 21.4448893,4.44135014 22.8417288,8.32196156 C24.5936036,13.1886601 23.6223156,17.5748787 20.0118717,21.3071787 C18.2391486,23.1402344 16.0488453,24.2899544 13.5666651,24.8727816 C13.0687574,24.9898373 12.5591992,25.0548001 12.0551596,25.1436644 L12.0551596,25.1436644 Z" id="Imported-Layers-Copy-6" sketch:type="MSShapeGroup"></path>
        </g>
    </g>
</svg>