<?xml version="1.0" encoding="UTF-8" standalone="no"?>
<svg width="35px" height="34px" viewBox="0 0 35 34" version="1.1" xmlns="http://www.w3.org/2000/svg" xmlns:xlink="http://www.w3.org/1999/xlink" xmlns:sketch="http://www.bohemiancoding.com/sketch/ns">
    <!-- Generator: Sketch 3.5.1 (25234) - http://www.bohemiancoding.com/sketch -->
    <title>sunny</title>
    <desc>Created with Sketch.</desc>
    <defs></defs>
    <g id="Page-2" stroke="none" stroke-width="1" fill="none" fill-rule="evenodd" sketch:type="MSPage">
        <g id="sunny" sketch:type="MSLayerGroup" fill="#FFFFFF">
            <g id="Imported-Layers" transform="translate(0.060870, 0.060870)" sketch:type="MSShapeGroup">
                <path d="M28.2593626,28.2193473 L23.3580727,23.7016361 C23.0539198,23.4215891 23.0386759,22.9474995 23.3254071,22.6489724 C23.6121384,22.351156 24.096315,22.3369404 24.4011938,22.6176981 L29.3024837,27.1346986 C29.6066366,27.4154562 29.6211547,27.8888351 29.3344234,28.1873622 C29.048418,28.4858894 28.5642414,28.500105 28.2593626,28.2193473" id="Fill-1"></path>
                <path d="M9.53399611,11.072515 L4.6327062,6.55551458 C4.32782738,6.27475688 4.31330934,5.80137808 4.60004061,5.50285091 C4.88677188,5.20432373 5.37022257,5.19010815 5.67510139,5.47086585 L10.5763913,9.98857708 C10.8812701,10.2693348 10.8957882,10.7427136 10.6090569,11.0412408 C10.3223256,11.3390572 9.83814903,11.3532727 9.53399611,11.072515" id="Fill-2"></path>
                <path d="M5.61630333,28.1631957 L10.1147177,23.2602423 C10.3941899,22.9560289 10.8776406,22.9304409 11.1890525,23.2040908 C11.5004645,23.4777407 11.525871,23.9511195 11.2463988,24.2560437 L6.74798446,29.1589971 C6.46851221,29.4632105 5.98506152,29.4887986 5.67437549,29.2151486 C5.36296355,28.9414987 5.33683108,28.4681199 5.61630333,28.1631957" id="Fill-3"></path>
                <path d="M22.6880652,9.43416947 L27.1864796,4.53121603 C27.4659518,4.22700263 27.9494025,4.20141458 28.2608144,4.47506449 C28.5715005,4.7487144 28.5976329,5.22209321 28.3181607,5.52701739 L23.8197463,10.4299708 C23.5402741,10.7341842 23.0568234,10.7597723 22.7454115,10.4861224 C22.4347254,10.2124725 22.408593,9.73909366 22.6880652,9.43416947" id="Fill-4"></path>
                <path d="M16.5324167,32.7512741 L16.4554711,26.1609313 C16.4511157,25.7515226 16.789386,25.4124811 17.2075056,25.4082164 C17.6256251,25.4032409 17.9718803,25.7344639 17.9769616,26.1438726 L18.0539072,32.7342154 C18.0582626,33.1443349 17.7199923,33.4826657 17.3018728,33.4876411 C16.8837533,33.4926166 16.5374981,33.1613936 16.5324167,32.7512741" id="Fill-5"></path>
                <path d="M16.1563995,7.650825 L16.0794539,1.06048225 C16.0743726,0.650362772 16.4126429,0.312031975 16.8307624,0.307056522 C17.248882,0.302081069 17.5951372,0.633304076 17.6002185,1.04342355 L17.6771641,7.6337663 C17.6822454,8.043175 17.3432492,8.38221658 16.9251297,8.38648125 C16.5070102,8.3914567 16.1607549,8.0602337 16.1563995,7.650825" id="Fill-6"></path>
                <path d="M0.884148566,16.1425015 L7.61543728,16.1638249 C8.0335568,16.1652465 8.37473071,16.5014449 8.37327891,16.9108536 C8.37255301,17.3202623 8.02920139,17.6543284 7.61035597,17.6529069 L0.879793154,17.6322943 C0.460947734,17.6308727 0.119773821,17.2946743 0.121225624,16.8852656 C0.122677428,16.4751461 0.466029047,16.14108 0.884148566,16.1425015" id="Fill-7"></path>
                <path d="M26.5222793,16.1417908 L33.253568,16.1624034 C33.6716875,16.1638249 34.0128614,16.5000234 34.0114096,16.9094321 C34.0099578,17.3195515 33.6666062,17.6536177 33.2484867,17.6521961 L26.517198,17.6308727 C26.0990784,17.6294512 25.7579045,17.2932527 25.7593563,16.883844 C25.7608081,16.4744353 26.1041598,16.1403692 26.5222793,16.1417908" id="Fill-8"></path>
                <path d="M16.8779461,9.99213098 C12.9900153,9.99213098 9.8265346,13.0897058 9.8265346,16.896638 C9.8265346,20.7042811 12.9900153,23.8018559 16.8779461,23.8018559 C20.7666028,23.8018559 23.9300834,20.7042811 23.9300834,16.896638 C23.9300834,13.0897058 20.7666028,9.99213098 16.8779461,9.99213098 L16.8779461,9.99213098 Z" id="Fill-9"></path>
            </g>
        </g>
    </g>
</svg>